<?xml version="1.0" standalone="no"?>
<!DOCTYPE svg PUBLIC "-//W3C//DTD SVG 20010904//EN"
 "http://www.w3.org/TR/2001/REC-SVG-20010904/DTD/svg10.dtd">
<svg version="1.0" xmlns="http://www.w3.org/2000/svg"
 width="718.000000pt" height="718.000000pt" viewBox="0 0 718.000000 718.000000"
 preserveAspectRatio="xMidYMid meet">
<metadata>
Created by potrace 1.14, written by Peter Selinger 2001-2017
</metadata>
<g transform="translate(0.000000,718.000000) scale(0.100000,-0.100000)"
fill="#000000" stroke="none">
<path d="M1288 6145 c-3 -3 -36 -7 -74 -10 -165 -10 -298 -41 -389 -88 -77
-40 -171 -135 -213 -214 -37 -71 -78 -218 -88 -320 -4 -37 -8 -356 -9 -708 -1
-352 -5 -671 -9 -710 -31 -297 -152 -455 -369 -481 -29 -4 -54 -8 -57 -11 -2
-2 -5 -17 -5 -34 -1 -29 4 -33 37 -30 30 3 127 -27 171 -52 105 -62 198 -201
212 -317 2 -19 7 -57 10 -85 4 -27 8 -347 9 -710 2 -363 6 -682 10 -710 10
-79 21 -148 26 -170 1 -5 3 -14 4 -20 16 -91 76 -212 132 -268 54 -54 186
-122 249 -128 2 0 19 -5 37 -10 33 -9 59 -14 128 -24 19 -3 93 -8 163 -12
l128 -6 -3 33 c-3 36 -1 35 -106 45 -156 14 -261 116 -315 305 -36 127 -39
200 -42 920 -2 627 -5 722 -27 805 -5 22 -11 47 -13 55 -22 109 -118 234 -235
302 -58 34 -167 78 -174 70 -3 -3 -6 -1 -6 5 0 6 26 20 58 31 57 21 157 78
204 117 70 57 138 178 163 289 26 119 28 157 30 816 2 613 6 753 20 835 23
126 64 227 119 291 34 40 132 100 177 108 13 3 24 5 24 6 0 1 23 4 50 6 71 7
76 10 73 44 -2 28 -5 30 -38 28 -20 -1 -41 1 -47 5 -5 4 -12 4 -15 2z"/>
<path d="M5792 6108 c0 -37 1 -38 39 -39 22 -1 42 -2 47 -3 4 -1 25 -5 46 -10
89 -17 177 -79 229 -161 32 -50 73 -172 82 -245 4 -30 9 -71 11 -90 3 -19 7
-343 8 -720 2 -377 7 -705 10 -730 35 -244 118 -373 306 -473 36 -19 84 -41
108 -48 l42 -12 -87 -36 c-232 -96 -333 -234 -368 -501 -4 -30 -9 -351 -10
-713 -3 -605 -5 -717 -21 -802 -3 -16 -6 -39 -8 -50 -15 -84 -68 -208 -109
-256 -43 -48 -113 -88 -190 -107 -43 -10 -77 -16 -77 -12 0 4 -13 5 -29 2 -26
-3 -29 -8 -29 -39 l0 -35 127 6 c163 7 195 12 316 41 103 26 204 77 259 132
65 65 117 181 141 318 4 22 9 49 11 60 13 79 17 217 19 800 3 686 4 706 29
833 8 40 52 125 85 167 69 85 202 155 295 155 30 0 33 2 31 30 -2 38 -1 37
-55 43 -129 16 -213 64 -278 161 -26 38 -60 112 -67 146 -2 8 -8 35 -14 60
-21 96 -24 186 -27 820 -2 606 -5 722 -19 790 -3 14 -8 41 -11 60 -23 139
-145 329 -239 372 -14 6 -25 14 -25 18 0 4 -8 10 -17 13 -10 3 -45 15 -78 27
-33 12 -71 24 -85 26 -14 3 -36 7 -50 9 -49 10 -106 16 -190 20 -47 3 -102 6
-122 8 -36 2 -37 2 -36 -35z"/>
<path d="M3297 5963 c-2 -1 -49 -4 -318 -18 -75 -4 -99 -11 -190 -51 -57 -25
-120 -53 -139 -61 -19 -8 -46 -20 -60 -27 -14 -6 -74 -49 -135 -95 -60 -46
-151 -115 -201 -153 -55 -41 -96 -80 -102 -96 -6 -15 -14 -36 -18 -47 -4 -11
-8 -22 -9 -25 -1 -3 -4 -12 -7 -20 -4 -8 -28 -80 -55 -159 l-48 -143 -93 -55
c-77 -45 -97 -62 -109 -92 -8 -20 -25 -60 -39 -89 -13 -29 -24 -54 -24 -57 0
-2 -18 -42 -40 -89 -38 -83 -74 -143 -95 -158 -7 -5 -7 -8 0 -8 7 0 7 -3 0 -8
-19 -13 -122 -177 -135 -212 -6 -19 -16 -44 -21 -55 -4 -11 -23 -59 -42 -106
-32 -82 -32 -88 -17 -115 8 -16 42 -78 74 -139 33 -60 69 -126 81 -145 27 -42
32 -68 50 -260 16 -162 11 -149 90 -230 40 -41 104 -108 142 -147 l69 -73 140
-36 c76 -20 144 -36 151 -37 6 0 23 -43 36 -96 14 -53 32 -122 41 -155 l16
-58 -67 -92 c-37 -50 -70 -93 -73 -96 -44 -39 -96 -129 -155 -265 -10 -22 -30
-67 -46 -100 -44 -94 -66 -156 -74 -210 -5 -27 -9 -52 -10 -55 0 -3 -5 -27
-10 -55 -4 -27 -9 -54 -11 -60 -1 -5 -5 -28 -9 -50 -4 -22 -10 -57 -15 -77
-10 -47 1 -58 48 -48 20 5 57 11 82 14 25 3 56 8 70 10 14 3 59 10 100 16 41
6 89 14 105 17 17 2 41 6 55 8 25 4 195 14 321 19 l65 3 49 -124 c27 -68 54
-132 61 -141 13 -18 9 -20 292 176 l102 71 98 -47 c107 -53 109 -54 267 -157
95 -62 133 -79 267 -124 87 -29 159 -51 161 -49 2 2 10 -2 18 -8 8 -6 26 -14
41 -18 24 -5 40 8 171 142 214 219 271 278 387 402 58 62 119 126 136 144 16
17 66 76 109 131 44 55 82 102 85 105 18 15 61 81 65 96 3 11 33 115 67 232
l63 214 50 -6 c28 -3 61 -8 75 -11 13 -2 42 -7 65 -10 22 -3 47 -8 55 -10 8
-2 33 -7 56 -10 l40 -5 40 67 c51 87 51 88 103 180 24 43 52 89 61 103 10 14
16 34 13 45 -2 11 -5 31 -8 45 -2 14 -13 62 -24 105 -11 44 -23 95 -26 114 -3
19 -8 38 -11 42 -2 4 -7 25 -10 46 -5 37 27 117 187 470 25 54 24 61 -10 130
-16 32 -40 83 -54 113 -88 189 -153 312 -169 318 -4 2 -8 10 -8 17 0 8 -6 20
-13 27 -7 7 -30 43 -52 80 -44 74 -16 56 -292 181 -110 49 -113 51 -148 109
-19 33 -35 64 -35 69 0 5 -5 9 -10 9 -6 0 -9 3 -8 8 1 4 -5 18 -13 32 -30 46
-109 182 -109 186 0 2 -27 52 -60 110 -33 58 -60 108 -60 111 0 6 -63 91 -97
133 -6 8 -35 44 -63 80 -28 36 -60 76 -71 90 -11 14 -32 41 -47 61 -26 36 -53
52 -274 167 -102 53 -110 55 -318 67 -36 3 -83 6 -105 9 -123 14 -450 28 -458
19z m93 -208 c108 -14 128 -17 160 -21 19 -3 44 -7 56 -9 11 -2 79 -33 150
-69 122 -63 131 -70 159 -119 16 -29 30 -54 30 -57 1 -3 9 -21 20 -40 11 -19
20 -37 20 -40 1 -3 12 -27 24 -53 12 -26 24 -56 26 -65 2 -9 8 -29 14 -44 6
-16 8 -28 5 -28 -4 0 -2 -6 3 -12 6 -7 16 -35 23 -63 7 -27 17 -56 23 -62 5
-7 7 -13 3 -13 -3 0 -1 -12 5 -27 8 -23 34 -146 64 -313 3 -14 7 -36 10 -50 2
-14 7 -38 9 -54 3 -16 -16 -104 -44 -210 -27 -100 -52 -214 -55 -252 -3 -38
-7 -94 -10 -124 -3 -30 -8 -73 -10 -95 -2 -22 -10 -72 -19 -110 -8 -39 -18
-84 -21 -100 -4 -17 -8 -37 -9 -45 -1 -8 -6 -28 -9 -45 -4 -16 -9 -46 -12 -65
-3 -19 -7 -46 -10 -60 -2 -14 -7 -43 -10 -65 -3 -23 -8 -52 -10 -65 -3 -14 -8
-45 -10 -68 -3 -24 -11 -49 -18 -56 -13 -13 -62 -72 -144 -172 -33 -38 -87
-85 -153 -130 -56 -38 -130 -88 -164 -111 -33 -23 -65 -43 -69 -43 -5 0 -41
-19 -80 -42 -39 -23 -163 -88 -275 -144 l-204 -103 -137 92 c-164 111 -158
106 -176 159 -8 24 -19 52 -24 63 -5 11 -18 45 -29 75 -11 30 -23 63 -27 73
-5 11 -3 17 6 17 7 0 20 7 30 16 9 8 23 17 31 18 7 1 62 26 122 56 l110 53
145 -42 c80 -23 155 -43 167 -46 11 -2 69 -15 128 -29 59 -14 113 -26 119 -26
16 0 197 172 197 186 0 7 -7 14 -15 17 -20 8 -185 48 -212 52 -43 6 -100 29
-209 85 -100 52 -120 58 -190 63 -44 4 -109 9 -146 13 -42 4 -73 2 -80 -4 -12
-9 -56 -34 -178 -100 -25 -13 -49 -28 -55 -32 -5 -5 -13 -9 -17 -9 -4 -1 -36
-15 -70 -31 -35 -15 -64 -27 -66 -26 -3 4 -81 234 -86 256 -2 8 -14 47 -27 85
-13 39 -24 72 -24 75 -4 13 -17 47 -26 62 -5 10 -9 29 -9 42 0 14 -4 27 -9 30
-18 11 -18 60 0 139 10 45 21 98 25 117 3 19 9 46 12 60 6 26 7 137 3 295 -2
50 0 101 3 115 4 14 9 41 12 60 2 19 7 46 10 60 2 14 6 36 9 50 2 14 11 68 20
120 9 52 30 147 47 210 16 63 32 125 34 138 3 12 13 39 23 60 11 20 27 55 36
77 60 142 74 163 132 204 32 22 65 47 74 56 9 8 19 15 23 15 4 0 24 13 44 29
20 16 93 54 160 85 112 51 151 64 232 80 14 2 48 10 75 16 28 7 64 14 80 17
17 3 32 7 35 10 5 5 124 -2 200 -12z"/>
</g>
</svg>
